<?xml version="1.0" encoding="UTF-8"?>
<svg id="Layer_1" data-name="Layer 1" xmlns="http://www.w3.org/2000/svg" viewBox="0 0 1920 593.69">
  <defs>
    <style>
      .cls-1 {
        fill: #141414;
      }

      .cls-2 {
        fill: #030303;
      }
    </style>
  </defs>
  <g>
    <path class="cls-2" d="M845.17,461.75l-111.42-125.41v125.41h-47.16V78.25h47.16v225.44l109.35-125.93h65.82l-133.71,141.48,134.22,142.52h-64.26ZM1172.18,177.76l-171.02,417.7h-48.71l55.97-136.81-114.53-280.89h52.34l89.14,230.1,88.1-230.1h48.71ZM1568.11,186.31c17.27,9.16,30.92,22.89,40.94,41.2,10.02,18.32,15.03,40.6,15.03,66.85v167.39h-46.64v-160.65c0-28.33-7-50.01-20.99-65.04-13.99-15.03-32.91-22.54-56.75-22.54s-44.05,7.86-58.56,23.58c-14.51,15.73-21.77,38.44-21.77,68.15v156.51h-46.64v-160.65c0-28.33-7-50.01-20.99-65.04-13.99-15.03-32.91-22.54-56.75-22.54s-44.05,7.86-58.56,23.58c-14.51,15.73-21.77,38.44-21.77,68.15v156.51h-47.16V177.76h47.16v40.94c9.33-14.85,21.85-26.25,37.57-34.2,15.72-7.94,33.08-11.92,52.08-11.92,23.84,0,44.91,5.36,63.23,16.07,18.31,10.71,31.95,26.43,40.94,47.16,7.94-20.03,21.07-35.58,39.39-46.64,18.31-11.05,38.69-16.58,61.15-16.58s41.8,4.58,59.08,13.73ZM1649.48,242.28c11.74-21.94,27.9-38.95,48.46-51.05,20.55-12.09,43.44-18.14,68.67-18.14s46.46,5.36,64.78,16.07c18.31,10.71,31.95,24.19,40.94,40.42v-51.82h47.68v284h-47.68v-52.86c-9.33,16.58-23.24,30.32-41.72,41.2-18.49,10.88-39.99,16.33-64.52,16.33s-48.03-6.22-68.41-18.66c-20.39-12.44-36.45-29.88-48.2-52.34-11.75-22.45-17.62-48.02-17.62-76.7s5.87-54.5,17.62-76.44ZM1859.37,263.27c-8.64-15.89-20.3-28.07-34.98-36.54-14.69-8.46-30.84-12.7-48.46-12.7s-33.69,4.15-48.2,12.44c-14.51,8.29-26.09,20.39-34.72,36.28-8.64,15.9-12.96,34.55-12.96,55.97s4.32,40.68,12.96,56.75c8.63,16.07,20.21,28.33,34.72,36.8,14.51,8.47,30.58,12.7,48.2,12.7s33.77-4.23,48.46-12.7c14.68-8.46,26.34-20.73,34.98-36.8,8.63-16.07,12.96-34.8,12.96-56.23s-4.32-40.07-12.96-55.97Z"/>
    <path class="cls-1" d="M845.17,461.75l-111.42-125.41v125.41h-47.16V78.25h47.16v225.44l109.35-125.93h65.82l-133.71,141.48,134.22,142.52h-64.26ZM1172.18,177.76l-171.02,417.7h-48.71l55.97-136.81-114.53-280.89h52.34l89.14,230.1,88.1-230.1h48.71ZM1568.11,186.31c17.27,9.16,30.92,22.89,40.94,41.2,10.02,18.32,15.03,40.6,15.03,66.85v167.39h-46.64v-160.65c0-28.33-7-50.01-20.99-65.04-13.99-15.03-32.91-22.54-56.75-22.54s-44.05,7.86-58.56,23.58c-14.51,15.73-21.77,38.44-21.77,68.15v156.51h-46.64v-160.65c0-28.33-7-50.01-20.99-65.04-13.99-15.03-32.91-22.54-56.75-22.54s-44.05,7.86-58.56,23.58c-14.51,15.73-21.77,38.44-21.77,68.15v156.51h-47.16V177.76h47.16v40.94c9.33-14.85,21.85-26.25,37.57-34.2,15.72-7.94,33.08-11.92,52.08-11.92,23.84,0,44.91,5.36,63.23,16.07,18.31,10.71,31.95,26.43,40.94,47.16,7.94-20.03,21.07-35.58,39.39-46.64,18.31-11.05,38.69-16.58,61.15-16.58s41.8,4.58,59.08,13.73ZM1649.48,242.28c11.74-21.94,27.9-38.95,48.46-51.05,20.55-12.09,43.44-18.14,68.67-18.14s46.46,5.36,64.78,16.07c18.31,10.71,31.95,24.19,40.94,40.42v-51.82h47.68v284h-47.68v-52.86c-9.33,16.58-23.24,30.32-41.72,41.2-18.49,10.88-39.99,16.33-64.52,16.33s-48.03-6.22-68.41-18.66c-20.39-12.44-36.45-29.88-48.2-52.34-11.75-22.45-17.62-48.02-17.62-76.7s5.87-54.5,17.62-76.44ZM1859.37,263.27c-8.64-15.89-20.3-28.07-34.98-36.54-14.69-8.46-30.84-12.7-48.46-12.7s-33.69,4.15-48.2,12.44c-14.51,8.29-26.09,20.39-34.72,36.28-8.64,15.9-12.96,34.55-12.96,55.97s4.32,40.68,12.96,56.75c8.63,16.07,20.21,28.33,34.72,36.8,14.51,8.47,30.58,12.7,48.2,12.7s33.77-4.23,48.46-12.7c14.68-8.46,26.34-20.73,34.98-36.8,8.63-16.07,12.96-34.8,12.96-56.23s-4.32-40.07-12.96-55.97Z"/>
  </g>
  <polygon points="318.36 534.67 207.1 376.56 169.59 366.11 19.16 324.42 0 308.62 12.8 173.73 34.73 163.88 230.14 144.54 364.18 9.52 388.53 0 466.7 54.3 499.72 77.26 497.26 101.01 418.98 280.69 465.61 469.1 461.08 493.71 337.44 548.71 318.36 534.67"/>
</svg>